<svg id="Layer_1" data-name="Layer 1" xmlns="http://www.w3.org/2000/svg" viewBox="0 0 955.81 172.62"><defs><style>.cls-1{fill:#3a3a3a;}</style></defs><path class="cls-1" d="M160.41,591.36a42.24,42.24,0,0,1,2.46-6.32c5.45-9.5,5.61-19.24,1.47-29.14-2.52-6-3-11.64,1.12-17.3,1.06-1.44.63-3.9,1.08-5.85.59-2.53.72-5.53,2.2-7.42,5.28-6.75,10.5-13.73,16.83-19.41,4.11-3.7,9.93-5.9,15.36-7.5,2-.58,7.16,2.27,7.34,3.93,1.11,10.33,1.37,20.76,1.56,31.16,0,3-1.09,6.11-1.64,9.17-.23,1.31.15,3.22-.6,3.86-7.3,6.26-8.7,17.59-19.7,21-9.43,2.93-17.45,8.77-21.59,18.56a55,55,0,0,1-3.77,6.38Zm35.43-40.18c8.85-2.84,9.21-3.44,8.36-11.83a8.65,8.65,0,0,1,.58-4.41c4.95-10.26,1.33-20.64.32-30.93-.06-.61-4.71-1.91-6.13-1.06-5.48,3.3-12.63,4.33-15.14,12-1.18,3.62-4.27,7.9-7.59,9.31-7.87,3.34-7.15,8-3.66,13.66-8.33,5.34-8.36,12.67-.88,25.63,8-6,3.64-14.13,4.22-22l3.92,5.86,1.82-.34V530.3l1.54-1,1.89,5.3,2.64-1.28V517.5l1.75-.84L192,522.5c2.44-4.16,4-6.75,5.47-9.34l1.69.6-2.07,9.41,7.76,1.71c-4.62,2-7.44,2.74-9.64,4.32s-3.53,3.88-5.68,6.37l6.19,1.52-14.1,12.69,8.32.69c-6.88,4.09-13.46,7.62-13.9,16.77C194.69,561.9,194.75,561.85,195.84,551.18Z" transform="translate(-66.34 -444.17)"/><path class="cls-1" d="M147.15,588c-9.82-10.46-19.23-20.54-28.72-30.54-2-2.09-3.94-4.81-6.46-5.67-8.8-3-12.23-10.6-16.08-17.78-.81-1.51-.34-4.6.75-6.07,2.84-3.8,6.34-7.1,9.93-11,1.47,1.11,2.72,1.91,3.79,2.88,5.56,5.07,12.1,9.45,16.39,15.43,7.89,11,19.86,17.92,27.75,28.23C163.08,574.75,163.51,572.24,147.15,588Zm6.44-11.93c2.09-6.83-1.78-12.76-9-17.93-5.58-4-10-9.61-14.88-14.6-1.43-1.47-2.3-3.58-3.87-4.84-6.4-5.12-13-10-20.3-15.63.37,1.92.06,4.65,1.27,5.9,4.67,4.8,10.07,8.9,14.77,13.68C132.27,553.56,142.7,564.7,153.59,576.1ZM99.23,528.54c.69,3,1.07,5.12,1.71,7.21,2.77,9.08,12.2,11.09,18,16.91,9.69,9.69,19,19.82,28.39,29.76,1.22-2.26,1.53-4.88.37-6.17-9.23-10.17-18.52-20.29-28.22-30C113.64,540.39,107,535.3,99.23,528.54Z" transform="translate(-66.34 -444.17)"/><path class="cls-1" d="M168.54,486.33c1.12,3.45,1.88,7.08,3.44,10.32,4.47,9.28,1.11,17.25-8.44,20.8a30.32,30.32,0,0,0-9.61,6.45c-6.54,6.08-14.43,5.33-19.85-1.71a54.38,54.38,0,0,0-10.57-10.26c-7.13-5.3-8.3-11.93-3.54-19.32a33.23,33.23,0,0,0,4.82-12.15c1.61-9.69,8.38-14.09,17.73-11,2.91.95,6.19,1.82,9.15,1.46C164.75,469.31,169.36,473.09,168.54,486.33Zm-4,.22c1.45-10.84-2-13.6-12.34-12.2a25.39,25.39,0,0,1-10-1c-8.72-2.44-12.08-.25-14.13,8.58a55.86,55.86,0,0,1-5.47,13.49c-2.87,5.35-2.32,9.27,2.65,13.07A63.25,63.25,0,0,1,136.31,519c4.93,6.16,9.31,6.76,15.34,1.74a69.37,69.37,0,0,1,12.75-8.85c6.1-3.08,7-7.21,4.63-13C167.36,494.83,166,490.66,164.49,486.55Z" transform="translate(-66.34 -444.17)"/><path class="cls-1" d="M146.05,482.46c6.86.21,12.68,7.65,12.28,15.68A12.59,12.59,0,0,1,145,510a12.93,12.93,0,0,1-12-13.35C133.24,488.83,139.32,482.25,146.05,482.46Zm-2.71,25,3.78.15c2.67-3.34,6.48-6.3,7.73-10.11,1.54-4.67-3.91-9.85-9.1-9.75-5.82.1-9.59,3.76-8.95,9C137.27,500.56,141,503.94,143.34,507.5Z" transform="translate(-66.34 -444.17)"/><path class="cls-1" d="M152.66,453.61a76.87,76.87,0,1,0,76.87,76.87A77,77,0,0,0,152.66,453.61Zm0,151.35a74.48,74.48,0,1,1,74.48-74.48A74.57,74.57,0,0,1,152.66,605Z" transform="translate(-66.34 -444.17)"/><path class="cls-1" d="M152.66,444.17A86.31,86.31,0,1,0,239,530.48,86.41,86.41,0,0,0,152.66,444.17Zm0,170.23a83.92,83.92,0,1,1,83.92-83.92A84,84,0,0,1,152.66,614.4Z" transform="translate(-66.34 -444.17)"/><path class="cls-1" d="M364.74,476.18a24.68,24.68,0,0,0-8.19-6.67l-4.68-2.11-5.85-.7q-5.86-.46-13.11-.47H289.14L270.89,466l3.27,6.79-.23,116.08-3.74,6.79h19.66l-4.45-6.79V531.53h56.17l6.79,4.68V524.74l-6.79,4.45H285.4v-56.4l2.34-4.45h46.81a26.59,26.59,0,0,1,8.42,1.4,23.38,23.38,0,0,1,7.49,4.1,23.13,23.13,0,0,1,5.39,6.32,18.2,18.2,0,0,1,2.34,8.31l.46,2.1,13.11.47-.7-3A42.55,42.55,0,0,0,364.74,476.18Z" transform="translate(-66.34 -444.17)"/><path class="cls-1" d="M459.17,518.66a44.22,44.22,0,0,0-31.47-13.11,42.72,42.72,0,0,0-17.21,3.51,44,44,0,0,0-14,9.6A46.1,46.1,0,0,0,387,532.93,45.66,45.66,0,0,0,387,568a47.5,47.5,0,0,0,9.48,14.39,42.79,42.79,0,0,0,14.16,9.72l8,3.51h9.13a43.74,43.74,0,0,0,31.59-13.34l5.85-6.09,3.51-8.19a45.66,45.66,0,0,0,0-35.11A46.1,46.1,0,0,0,459.17,518.66Zm2.46,39.55a48.91,48.91,0,0,1-3.51,14.86,33.74,33.74,0,0,1-7.84,11.47,27.61,27.61,0,0,1-11.58,6.67,32.43,32.43,0,0,1-3.51.7,24.44,24.44,0,0,1-3.52.24q-11.93,0-21.88-9t-13.92-23.76L393.76,551l.7-8.2A45.27,45.27,0,0,1,397.74,528a33.73,33.73,0,0,1,8-11.7l4.91-4.68,6.55-1.64a24.07,24.07,0,0,1,7-.94q11.93,0,21.88,9T460,541.83l2.11,8.42Z" transform="translate(-66.34 -444.17)"/><path class="cls-1" d="M559.58,518.66a44.22,44.22,0,0,0-31.48-13.11,42.64,42.64,0,0,0-17.2,3.51,44,44,0,0,0-14,9.6,46.1,46.1,0,0,0-9.48,14.27,45.66,45.66,0,0,0,0,35.11,47.5,47.5,0,0,0,9.48,14.39A42.79,42.79,0,0,0,511,592.15l8,3.51h9.13a43.69,43.69,0,0,0,31.59-13.34l5.85-6.09,3.51-8.19a45.54,45.54,0,0,0,0-35.11A46.25,46.25,0,0,0,559.58,518.66ZM562,558.21a48.62,48.62,0,0,1-3.51,14.86,33.6,33.6,0,0,1-7.84,11.47,27.54,27.54,0,0,1-11.58,6.67,31.51,31.51,0,0,1-3.51.7,24.4,24.4,0,0,1-3.51.24q-11.94,0-21.89-9t-13.92-23.76L494.16,551l.7-8.2A45.27,45.27,0,0,1,498.14,528a33.73,33.73,0,0,1,8-11.7l4.91-4.68,6.55-1.64a24.07,24.07,0,0,1,7-.94q11.92,0,21.88,9t13.92,23.76l2.11,8.42Z" transform="translate(-66.34 -444.17)"/><path class="cls-1" d="M648.86,482.38v32.3a40.91,40.91,0,0,0-12.05-8.78,32.78,32.78,0,0,0-14.16-3.16,31.64,31.64,0,0,0-14.75,3.51l-7,3.51q-10.53,12.18-13.57,20.37a49.28,49.28,0,0,0-3,17.32V551a49.32,49.32,0,0,0,3,17.32,45.67,45.67,0,0,0,8.31,14.27,39.4,39.4,0,0,0,12.28,9.6l6.79,3.51h8a32.64,32.64,0,0,0,14.16-3.16,40.91,40.91,0,0,0,12.05-8.78v8h11l.23-125.92-15.21,15.45Zm0,90.58a41.93,41.93,0,0,1-10.18,15A19.94,19.94,0,0,1,625,593.55,19.17,19.17,0,0,1,614,590l-5.39-3.51-3.74-6.08a47.79,47.79,0,0,1-6.09-14.28L596.43,558v-9.13a62.74,62.74,0,0,1,2.34-17.32l2.11-8,4-6.08a31.29,31.29,0,0,1,9-9.36A19.74,19.74,0,0,1,625,504.61a20.22,20.22,0,0,1,13.69,5.5,41.26,41.26,0,0,1,10.18,14.63Z" transform="translate(-66.34 -444.17)"/><polygon class="cls-1" points="772.56 27.22 730.2 130.66 700.24 59.51 715.45 22.07 706.09 22.07 710.77 27.22 698.83 56 686.66 26.98 689.24 22.3 667.47 22.3 671.92 26.98 691.81 73.32 668.17 130.66 624.64 26.98 627.22 22.3 605.45 22.3 610.13 26.98 663.26 151.49 693.22 76.83 725.28 151.49 777.47 22.07 768.11 22.07 772.56 27.22"/><path class="cls-1" d="M925.38,524.27a41.86,41.86,0,0,0-8.43-9.59,39.73,39.73,0,0,0-10.65-6.32A34.16,34.16,0,0,0,879,509.41a40,40,0,0,0-12.17,9.25,43.89,43.89,0,0,0-8.31,13.69,45.8,45.8,0,0,0-3,16.73v3.51a44.87,44.87,0,0,0,3,16.62l3,8L867,583A38.48,38.48,0,0,0,879,592.26a33.11,33.11,0,0,0,14.86,3.4h6.55l5.85-2.34A39.73,39.73,0,0,0,917,587a41.7,41.7,0,0,0,8.43-9.6,40.36,40.36,0,0,0,5.26-12.17l-7.25-2.34a61.82,61.82,0,0,1-4,12.29,38.33,38.33,0,0,1-6.09,9.71l-3.74,4q-8.67,4.68-13.34,4.68a20,20,0,0,1-9.83-2.57,27.06,27.06,0,0,1-8.31-7.26,46.22,46.22,0,0,1-6.2-11,61.7,61.7,0,0,1-3.75-13.57l62.49-22.7A40.53,40.53,0,0,0,925.38,524.27ZM867.92,556.1a16.53,16.53,0,0,1-.23-2.8v-2.81a60.84,60.84,0,0,1,2.22-16.74,47,47,0,0,1,6.2-13.69l3.75-5.61,5.38-3.28a20.17,20.17,0,0,1,11-3.28q9.12,0,16.38,7.84t10.3,20.48Z" transform="translate(-66.34 -444.17)"/><path class="cls-1" d="M1019.11,531.65a46.2,46.2,0,0,0-8.19-13.46,36.93,36.93,0,0,0-12.17-9.13,35.07,35.07,0,0,0-15-3.27,34.28,34.28,0,0,0-14.4,3,41.31,41.31,0,0,0-12,8.42l.23-51.95-15.21,15,4,1.41v42.13l-.23,71.85,12.17-12.41a36.88,36.88,0,0,0,11.7,8l6.32,2.81h7.49a34.93,34.93,0,0,0,15-3.28,36.66,36.66,0,0,0,12.17-9.13l5.15-5.85,3-7.72a45.08,45.08,0,0,0,3-16.62v-3.27A44.18,44.18,0,0,0,1019.11,531.65Zm-8.9,18.6a60.21,60.21,0,0,1-2.22,16.5,47.18,47.18,0,0,1-6.08,13.58,31.87,31.87,0,0,1-9.13,9.13,20.22,20.22,0,0,1-11.12,3.39,21,21,0,0,1-14.16-5.62,38.29,38.29,0,0,1-10.18-15V528l4-9.13q12.65-11.24,20.36-11.23a20.75,20.75,0,0,1,11.12,3.27,30.09,30.09,0,0,1,9.13,9.13,51.86,51.86,0,0,1,6.2,13.58l2.1,7.72Z" transform="translate(-66.34 -444.17)"/></svg>